PathFileType	4	(X/Y/Z)	/Users/niels/Desktop/University/Third Semester/Perception and Action/Exam/Gymnastics Motion Tracking/Code for Gym Tracking/Analyzed Data/Webcam_Backflip/id6_1_baseline_Sports2D/id6_1_baseline_Sports2D_px_person00.trc
DataRate	CameraRate	NumFrames	NumMarkers	Units	OrigDataRate	OrigDataStartFrame	OrigNumFrames
29.806451612903224	29.806451612903224	12	22	m	29.806451612903224	19	155
Frame#	Time	Hip			RHip			RKnee			RAnkle			RBigToe			RSmallToe			RHeel			LHip			LKnee			LAnkle			LBigToe			LSmallToe			LHeel			Neck			Head			Nose			RShoulder			RElbow			RWrist			LShoulder			LElbow			LWrist		
		X1	Y1	Z1	X2	Y2	Z2	X3	Y3	Z3	X4	Y4	Z4	X5	Y5	Z5	X6	Y6	Z6	X7	Y7	Z7	X8	Y8	Z8	X9	Y9	Z9	X10	Y10	Z10	X11	Y11	Z11	X12	Y12	Z12	X13	Y13	Z13	X14	Y14	Z14	X15	Y15	Z15	X16	Y16	Z16	X17	Y17	Z17	X18	Y18	Z18	X19	Y19	Z19	X20	Y20	Z20	X21	Y21	Z21	X22	Y22	Z22
19	0.6374458874458875	0.9529312364991642	-0.6561364810289849	0.0	0.950953993559805	-0.6582420620094679	0.0	1.0046131877191378	-0.7442182829038427	0.0	0.9747393640374783	-0.8327516403176818	0.0	0.9994431018983977	-0.8436391488458678	0.0	0.9921111818757946	-0.8447306166773025	0.0	0.9648578805402201	-0.840124301827388	0.0	0.9533731249220045	-0.6569801274040278	0.0	1.0005696540991191	-0.7427412084545176	0.0	0.9731921671678738	-0.8300650784501276	0.0	1.0005779092911908	-0.8415882433377654	0.0	0.989564889569535	-0.8398675505109588	0.0	0.9605205705444116	-0.8348509107859118	0.0	0.9613987243980193	-0.5258999233323322	0.0	0.9625872029660129	-0.45814576347381214	0.0	0.9855224220132228	-0.4873393830086055	0.0	0.9630886554272965	-0.5387539473577687	0.0	1.014608822440494	-0.5476850581243634	0.0	1.0594183406534718	-0.5342977752343918	0.0	0.9562558543305867	-0.5365109232517	0.0	1.0096638420636617	-0.5457175248343882	0.0	1.0533339572769411	-0.5316911422514685	0.0
20	0.670995670995671	0.9559313860354284	-0.6454779028401351	0.0	0.9544750319138974	-0.6468745507664996	0.0	1.001485271240412	-0.7391360255230887	0.0	0.9751301384274258	-0.8298739297464338	0.0	0.9980113542766821	-0.8421476210863149	0.0	0.9910842408890052	-0.8432893409524751	0.0	0.965489691255423	-0.8393151766505208	0.0	0.9558134431822394	-0.6458566607236093	0.0	0.9969297375050359	-0.7371611841544301	0.0	0.9729476470124286	-0.8271140564544306	0.0	0.9984321678257926	-0.8394687372720986	0.0	0.9886223777134527	-0.8374317026755695	0.0	0.960618793201449	-0.8336129318808508	0.0	0.9511379376772596	-0.5155150257561931	0.0	0.9459689111082501	-0.44643833601376115	0.0	0.9713773759968521	-0.4745632957251784	0.0	0.9547048208679769	-0.524573795118776	0.0	1.0087709501940696	-0.5117179934927693	0.0	1.048852999995948	-0.4801272708377334	0.0	0.9459892028141716	-0.523466651910959	0.0	1.0028163542589783	-0.5121966330005979	0.0	1.0415412725737985	-0.48133116063696063	0.0
21	0.7045454545454546	0.9584471535113583	-0.6271741383027372	0.0	0.9578277044116311	-0.6279652550269867	0.0	1.0003582373830082	-0.7246010149375998	0.0	0.9768938326272666	-0.8180658174040947	0.0	0.997196778712614	-0.8333809167474999	0.0	0.9905635631391921	-0.8343312427988274	0.0	0.9675737721543739	-0.8299092238182372	0.0	0.9575109202047298	-0.626989697140625	0.0	0.9951189671660182	-0.7220756977656295	0.0	0.9741468425339094	-0.8153022178712335	0.0	0.9974299691642121	-0.8299272888886146	0.0	0.9892081289090896	-0.8276078520228985	0.0	0.9622619915802985	-0.824197924305893	0.0	0.940013627990173	-0.4991684933856741	0.0	0.9287722096269647	-0.4288767954926637	0.0	0.9561731882205394	-0.4557186756845766	0.0	0.9449302340054111	-0.504526976350998	0.0	0.9962578293950741	-0.4725795386800801	0.0	1.0278974040274094	-0.4273373149028892	0.0	0.9344023728819062	-0.5046099467801346	0.0	0.98896485758505	-0.4753564917002929	0.0	1.0195791690958265	-0.432070884047733	0.0
22	0.7380952380952381	0.9595741208595042	-0.6028569820951286	0.0	0.9599298896816252	-0.6033166703967119	0.0	1.0025924154848982	-0.7002099620351151	0.0	0.9807865017649636	-0.7963747966340453	0.0	0.9980747384647469	-0.8166111131950423	0.0	0.991575022026483	-0.8171347168533151	0.0	0.9717511897026689	-0.810420362387828	0.0	0.95773535772941	-0.6020508630593455	0.0	0.9965225053460824	-0.6971414354756105	0.0	0.9776890754890947	-0.7936273471849026	0.0	0.9987504869846311	-0.8120593763325517	0.0	0.9917126782938985	-0.8099140791813266	0.0	0.9661705153288863	-0.8054011125413344	0.0	0.9277638292206126	-0.47817905165230246	0.0	0.9110860563371541	-0.40688563793997884	0.0	0.9400802898392462	-0.43243654562957434	0.0	0.9333682587656918	-0.4807331838621988	0.0	0.9795734927719493	-0.4349944914463791	0.0	1.0026786216037695	-0.38103368410892835	0.0	0.9216498742571742	-0.4817321859514447	0.0	0.971144167584867	-0.43932206939304913	0.0	0.9936919262963422	-0.38828809164359274	0.0
23	0.7716450216450217	0.9586818669320665	-0.5751969809342573	0.0	0.9599204827761765	-0.5757138349558527	0.0	1.008739091731007	-0.6663215818123953	0.0	0.9872803837638036	-0.764578303220182	0.0	1.0013235207799704	-0.7913596684985444	0.0	0.9950006286224037	-0.7913700947967808	0.0	0.9784285541428199	-0.780157112000923	0.0	0.9561343364203739	-0.57367756768874	0.0	1.0018108940474149	-0.662779011263578	0.0	0.9841284087362223	-0.7618594625641373	0.0	1.00315832100197	-0.7854759056581537	0.0	0.9967299543450273	-0.7841429928422309	0.0	0.9728200172125329	-0.7767867176410242	0.0	0.9144581788948737	-0.45457152050253113	0.0	0.893126407173493	-0.38284245366298425	0.0	0.9235249195013376	-0.40710766789842395	0.0	0.920109090781761	-0.4556787314503994	0.0	0.9617633244206283	-0.40263605700117916	0.0	0.9788481081452659	-0.34413881211004	0.0	0.9082140549673644	-0.4570239741084155	0.0	0.9528042614678943	-0.4073267513159291	0.0	0.9696430714381677	-0.35254448735717003	0.0
24	0.8051948051948052	0.9558497540257311	-0.5473265925117271	0.0	0.9577185376439081	-0.5483010332525688	0.0	1.0177136818299963	-0.6241020183248139	0.0	0.9961493004217002	-0.7233296411040105	0.0	1.0070946288048712	-0.7572792011132051	0.0	1.0013293463041004	-0.7568667096937286	0.0	0.98745439796649	-0.7395854275934046	0.0	0.9529928592141562	-0.5449569456271489	0.0	1.0100572434189863	-0.6202653925610155	0.0	0.993208854713652	-0.7206774529601018	0.0	1.0105815705677057	-0.7501928845684833	0.0	1.0045767593717918	-0.7501712551466417	0.0	0.9821423336550992	-0.7386781904359051	0.0	0.9006347370901543	-0.43086455827847203	0.0	0.8751788480343453	-0.3597259291375793	0.0	0.9070989005850953	-0.38250522922290975	0.0	0.9058596511466718	-0.43182487837565503	0.0	0.9454399273098751	-0.37767239579349143	0.0	0.960214373078373	-0.31770494509255814	0.0	0.8948768916287986	-0.4328858359971916	0.0	0.9366934985221267	-0.3814874535535749	0.0	0.9511171895891075	-0.32585370808014125	0.0
25	0.8387445887445888	0.9520171761530953	-0.521958149104388	0.0	0.9542598890025701	-0.5236728415927278	0.0	1.0265799201621684	-0.5755067508536564	0.0	1.0063460456120132	-0.6742278260331254	0.0	1.0152713512047284	-0.7142698166988031	0.0	1.0106411879279749	-0.713691432328083	0.0	0.9980378447772239	-0.6905377947306661	0.0	0.9492963239805238	-0.5186145301661149	0.0	1.0185515213107705	-0.5717625723901423	0.0	1.0037573227976393	-0.6716462346780796	0.0	1.020211049570971	-0.7064281923677661	0.0	1.0147567226145577	-0.707900250103313	0.0	0.9934317813776616	-0.6920938373559955	0.0	0.8870632572628722	-0.40970497838266823	0.0	0.8574050545797338	-0.3406322307750016	0.0	0.8912152360662424	-0.36133273872867044	0.0	0.8917285253273877	-0.41142981362898545	0.0	0.932253368451666	-0.36081876251917855	0.0	0.9483388777013265	-0.3013727518774737	0.0	0.8825180914942984	-0.41178055346147435	0.0	0.9242464224514881	-0.3628428644600369	0.0	0.9392971485223921	-0.30802365295563067	0.0
26	0.8722943722943723	0.9486638458842652	-0.500510916737886	0.0	0.951185473352876	-0.5030561266981364	0.0	1.0313500355465781	-0.523316662553062	0.0	1.0162788445048045	-0.6197724477320614	0.0	1.0253321840851801	-0.662735538986982	0.0	1.0223267921411057	-0.6623956240716024	0.0	1.0089484795770434	-0.6359586989844686	0.0	0.9463847794332543	-0.49620849813144136	0.0	1.023530542397144	-0.520240020698833	0.0	1.014018663046939	-0.6171277868494937	0.0	1.030612978649215	-0.6545697774376542	0.0	1.0256956297847784	-0.6573908359195265	0.0	1.0054863885594976	-0.6388750214657181	0.0	0.8743824194943512	-0.3934142005316342	0.0	0.839877057246697	-0.3283304765561585	0.0	0.8759010927608585	-0.34592222890686075	0.0	0.8788796870834402	-0.396336680427495	0.0	0.9228889217569847	-0.3516586484533303	0.0	0.9427561809504851	-0.2938175983908909	0.0	0.8717852837545543	-0.39590489873177204	0.0	0.9155505251158659	-0.35151886946175065	0.0	0.9333094225781103	-0.2982378706480972	0.0
27	0.9058441558441559	0.9471760860211276	-0.48283707229269585	0.0	0.95009457729361	-0.4860497512161791	0.0	1.0284933640058063	-0.47120810393743484	0.0	1.0241974446203208	-0.5630139669663968	0.0	1.0358423817454405	-0.6037705677376887	0.0	1.0347258283317773	-0.6041694722921794	0.0	1.0187101969850916	-0.579156409544587	0.0	0.9453334549380928	-0.47786620864021384	0.0	1.0214710842396948	-0.46938654594118345	0.0	1.0220602329350195	-0.5601000161442083	0.0	1.03958010939561	-0.5955941887184842	0.0	1.0348908130708654	-0.5994481068165362	0.0	1.0167350494183585	-0.581851030613015	0.0	0.8630793074123826	-0.38366208071925495	0.0	0.8229148726479345	-0.3249493223967048	0.0	0.8610591765242923	-0.33808390106028896	0.0	0.8683344072866865	-0.3876628400623056	0.0	0.9172862706194168	-0.34897733739690884	0.0	0.9415223374102886	-0.29314667584792775	0.0	0.863008180211906	-0.386786417450728	0.0	0.9098003330647018	-0.34698381312144894	0.0	0.9310459010997794	-0.2955645076026757	0.0
28	0.9393939393939394	0.9482839120438281	-0.4676955791909881	0.0	0.9517702078565886	-0.47108963081387717	0.0	1.0163745878786472	-0.42347934678438054	0.0	1.0284098637198114	-0.5070061906932175	0.0	1.0442687091529181	-0.5393877519627305	0.0	1.0451184058333145	-0.540989239579643	0.0	1.0255987574698704	-0.5229909661434092	0.0	0.9465430974119889	-0.4626416985546088	0.0	1.0105153444937685	-0.4233535928676068	0.0	1.0260130811948605	-0.5037982706217525	0.0	1.044306558105862	-0.5319383515581235	0.0	1.039292049877704	-0.5365178062470358	0.0	1.0252592172223693	-0.5244127176324328	0.0	0.8537073079086883	-0.38131079576163135	0.0	0.8074273340053373	-0.3317708665410414	0.0	0.8469508946473022	-0.3390066762108156	0.0	0.8608684065396485	-0.3856030139522092	0.0	0.9148088848870297	-0.35109574671268473	0.0	0.9418917074918663	-0.29724014690202594	0.0	0.8564126083225467	-0.3850446969044865	0.0	0.9060268288394102	-0.3483935407264008	0.0	0.9301561218775873	-0.2991919034647313	0.0
29	0.972943722943723	0.9517924079353086	-0.45349293360345094	0.0	0.9558057095857214	-0.456332196049053	0.0	0.9958409237478258	-0.3842630223609205	0.0	1.0273675349859885	-0.4544558759040544	0.0	1.0473104349186795	-0.47303431128884577	0.0	1.0500120590312754	-0.47598257819882867	0.0	1.0276381771494005	-0.4695656104872765	0.0	0.9497172999203134	-0.4490713231045037	0.0	0.9913225074852907	-0.3860853574930431	0.0	1.0242448834740738	-0.45123177279742854	0.0	1.0419454720283443	-0.46817735999519805	0.0	1.0356522047117935	-0.4730976233363532	0.0	1.0288643119340812	-0.46955003583198646	0.0	0.8469972870329538	-0.3863600015931893	0.0	0.7950573114248952	-0.3490736196637443	0.0	0.8345533282036273	-0.34917328966004196	0.0	0.8569650882101302	-0.38960432966207725	0.0	0.9143977116085115	-0.3563012813877728	0.0	0.9410196458627347	-0.3041695394343899	0.0	0.8523671074113479	-0.390370534597506	0.0	0.9038018605311463	-0.3549075188291827	0.0	0.9291322895879397	-0.3086282804438319	0.0
30	1.0064935064935066	0.9565870795189189	-0.4388828314578852	0.0	0.9607566024483781	-0.4404528551664244	0.0	0.9696436979166139	-0.35659196993232345	0.0	1.019751891520443	-0.4077179256346394	0.0	1.0415733158316232	-0.40990064815384974	0.0	1.0456692855927787	-0.4137287821519002	0.0	1.02282715080659	-0.4205889751644328	0.0	0.9539722241365782	-0.4356326959907024	0.0	0.9666810737289845	-0.3604225725855578	0.0	1.015534770293415	-0.4049324265772442	0.0	1.0300451809916962	-0.4103490742441021	0.0	1.0211295687390343	-0.41500578213469497	0.0	1.0253547628592683	-0.419482430614267	0.0	0.8438700877246288	-0.39794393181327026	0.0	0.7881446150662785	-0.37586402026023896	0.0	0.8256900213748665	-0.368230330136547	0.0	0.8569225640820402	-0.39875230539688267	0.0	0.9148212445343987	-0.36321161880927094	0.0	0.9366483624354692	-0.3126890626597625	0.0	0.851522764100947	-0.4016184391578087	0.0	0.9036367307788594	-0.36583625781143	0.0	0.9281902686284196	-0.3239655860499286	0.0
